<svg xmlns="http://www.w3.org/2000/svg" viewBox="0 0 1200 320" role="img" aria-labelledby="title desc">
  <title id="title">BetterSanPedro.ph logo draft A</title>
  <desc id="desc">A blue and gold sun rising over layered river waves beside the BetterSanPedro.ph wordmark.</desc>
  <defs>
    <linearGradient id="river" x1="0" x2="1" y1="0" y2="1">
      <stop offset="0" stop-color="#0ea5a4"/>
      <stop offset="1" stop-color="#1d4ed8"/>
    </linearGradient>
  </defs>
  <g transform="translate(22 24)">
    <circle cx="136" cy="136" r="126" fill="#003087"/>
    <g fill="#f4c430">
      <path d="M136 20h12l-12 42-12-42z"/>
      <path d="m208 43 10 7-30 32-7-10z"/>
      <path d="m250 112-2 12-43-5 2-12z"/>
      <path d="m214 190-7 10-34-27 7-9z"/>
      <path d="m136 252-12-1 12-42 12 42z"/>
      <path d="m58 213-10-7 31-32 8 10z"/>
      <path d="m22 136 1-12 42 12-42 12z"/>
      <path d="m52 61 8-9 30 32-8 9z"/>
      <circle cx="136" cy="116" r="39"/>
    </g>
    <path d="M10 174c47-28 83-29 126-4 42 24 77 24 126-5v55H10z" fill="#0ea5a4" opacity=".95"/>
    <path d="M10 214c47-25 82-23 126 2 42 24 78 23 126-8v54H10z" fill="url(#river)"/>
    <path d="M10 182c44-22 82-21 126 3 44 24 81 23 126-4" fill="none" stroke="#e6f7f5" stroke-width="6" stroke-linecap="round" opacity=".8"/>
  </g>
  <g transform="translate(330 72)" font-family="Inter, Arial, sans-serif">
    <text x="0" y="96" font-size="104" font-weight="800" letter-spacing="-5" fill="#0b1f3a">Better</text>
    <text x="0" y="190" font-size="94" font-weight="800" letter-spacing="-4" fill="#0b5e75">SanPedro</text>
    <text x="630" y="190" font-size="42" font-weight="700" fill="#f4c430">.ph</text>
  </g>
</svg>
