<svg xmlns="http://www.w3.org/2000/svg" viewBox="0 0 1200 320" role="img" aria-labelledby="title desc">
  <title id="title">BetterSanPedro.ph logo draft B</title>
  <desc id="desc">A civic blue circle with a gold sun and SP monogram beside the BetterSanPedro.ph wordmark.</desc>
  <g transform="translate(24 24)">
    <circle cx="136" cy="136" r="126" fill="#0b1f3a"/>
    <circle cx="136" cy="93" r="38" fill="#f4c430"/>
    <g stroke="#f4c430" stroke-width="9" stroke-linecap="round">
      <path d="M136 28v-15M136 158v-15M71 93H56M216 93h-15M90 47 79 36M182 47l11-11"/>
    </g>
    <path d="M35 190h202" stroke="#f4c430" stroke-width="8" stroke-linecap="round"/>
    <path d="M48 202c30-18 59-18 88 0 29 18 58 18 88 0" fill="none" stroke="#0ea5a4" stroke-width="15" stroke-linecap="round"/>
    <path d="M49 229c30-17 59-17 87 0 30 17 59 17 89 0" fill="none" stroke="#2563eb" stroke-width="14" stroke-linecap="round"/>
    <text x="136" y="147" text-anchor="middle" font-family="Inter, Arial, sans-serif" font-size="56" font-weight="900" fill="#fff" letter-spacing="-3">SP</text>
  </g>
  <g transform="translate(330 76)" font-family="Inter, Arial, sans-serif">
    <text x="0" y="92" font-size="108" font-weight="800" letter-spacing="-6" fill="#0b1f3a">Better</text>
    <text x="0" y="188" font-size="92" font-weight="800" letter-spacing="-4" fill="#0b1f3a">SanPedro</text>
    <text x="630" y="188" font-size="42" font-weight="700" fill="#2563eb">.ph</text>
  </g>
</svg>
