<?xml version="1.0" encoding="UTF-8"?>
<svg id="Design" xmlns="http://www.w3.org/2000/svg" version="1.1" viewBox="0 0 1080 1080">
  <!-- Generator: Adobe Illustrator 29.6.1, SVG Export Plug-In . SVG Version: 2.1.1 Build 9)  -->
  <defs>
    <style>
      .st0 {
        fill: #fff;
      }
    </style>
  </defs>
  <path class="st0" d="M95.54,760.45c2.82-1.15,5.27-3.05,7.08-5.5,1.63-2.22,2.65-4.84,2.96-7.58.31-2.72-.05-5.48-1.06-8.03l.61-.28c2.06,3.02,5.04,5.3,8.5,6.49,3.46,1.14,7.23.9,10.52-.67,4.6-1.86,8.04-5.8,9.26-10.6,1.36-4.95.46-11-2.69-18.14l-11.68-26.52-63.58,27.99,12.56,28.53c1.7,4.17,4.29,7.92,7.59,10.97,2.7,2.47,6.05,4.11,9.65,4.75,3.49.55,7.06.06,10.27-1.41ZM113.59,710.37l3.84,8.75c1.09,2.14,1.39,4.6.86,6.94-1.26,3.88-5.42,6.01-9.3,4.75-.34-.11-.68-.25-1-.41-2.11-1.22-3.74-3.12-4.63-5.38l-3.75-8.51,13.98-6.15ZM78.78,736.99l-4.18-9.49,15.15-6.64,4.31,9.78c1.24,2.44,1.55,5.24.89,7.89-.71,2.33-2.44,4.2-4.7,5.09-1.99,1.02-4.34,1.02-6.33,0-1.93-1.06-3.63-3.26-5.1-6.6l-.03-.03Z"/>
  <polygon class="st0" points="117.05 780.08 132.3 804.95 143.95 797.8 128.7 772.94 140.84 765.49 157.39 792.47 169.02 785.34 143.69 744.05 84.47 780.37 109.8 821.66 121.43 814.53 104.88 787.56 117.05 780.08"/>
  <polygon class="st0" points="198.11 843.27 208.64 834.61 171.36 789.25 160.83 797.91 174.22 814.2 131.09 849.66 141.6 862.45 184.73 826.99 198.11 843.27"/>
  <polygon class="st0" points="244.32 885.7 253.5 875.61 210.06 836.1 200.88 846.18 216.49 860.39 178.92 901.7 191.17 912.83 228.74 871.52 244.32 885.7"/>
  <polygon class="st0" points="271.8 938.36 279.5 927.08 255.42 910.63 263.45 898.87 289.59 916.72 297.28 905.46 257.27 878.14 218.1 935.5 258.1 962.82 265.79 951.56 239.65 933.71 247.71 921.92 271.8 938.36"/>
  <path class="st0" d="M339.55,930.38c-2.89-3.64-6.59-6.57-10.8-8.54l-25.68-12.82-31.03,62.16,15.05,7.5,10.61-21.27,7.72,3.85.72,26.93,16.39,8.18-1.08-30.09c3.99.22,7.96-.78,11.37-2.87,3.62-2.33,6.5-5.64,8.3-9.55,2.03-3.81,2.98-8.1,2.74-12.41-.32-4.03-1.82-7.88-4.31-11.07ZM325.51,946.07c-1.44,2.89-3.36,4.56-5.79,5.01-2.42.46-5.33-.15-8.72-1.83l-7.41-3.69,8.46-16.95,7.41,3.7c6.89,3.45,8.9,8.03,6.04,13.75Z"/>
  <path class="st0" d="M399.95,951.78c-8.22-7.31-19.34-10.46-30.18-8.55-5.7,1.14-10.96,3.89-15.16,7.92-4.47,4.15-7.87,9.83-10.21,17.05-2.19,6.19-2.83,12.83-1.85,19.33.93,5.71,3.49,11.03,7.36,15.32,4.17,4.46,9.44,7.74,15.28,9.5,5.2,1.81,10.76,2.34,16.2,1.54,5.02-.77,9.7-2.98,13.48-6.37,4.11-3.79,7.11-8.63,8.68-13.99l2.84-8.74-28.49-9.26-3.78,11.64,13.09,4.24c-.97,3.19-3.29,5.79-6.34,7.13-3.01,1.28-6.68,1.24-11.01-.17-4.94-1.6-8.22-4.63-9.8-8.99s-1.37-9.77.69-16.11,5.05-10.73,8.97-13.28c3.88-2.54,8.74-3.1,13.09-1.49,2.86.81,5.39,2.49,7.23,4.82,1.62,2.2,2.39,4.91,2.18,7.63l16.2,5.24c.9-4.4.58-8.96-.91-13.2-1.57-4.3-4.17-8.14-7.57-11.2Z"/>
  <path class="st0" d="M469.7,966.58c-9.64-7.01-22.09-8.87-33.36-4.98-5.4,2.03-10.11,5.57-13.54,10.21-3.66,4.82-6.06,11.01-7.2,18.59-1.14,7.58-.65,14.19,1.47,19.84,1.93,5.45,5.39,10.22,9.97,13.75,9.63,7.03,22.09,8.89,33.35,4.99,5.41-2.03,10.13-5.57,13.58-10.21,3.7-4.82,6.11-11,7.23-18.52,1.13-7.52.63-14.15-1.49-19.89-1.94-5.46-5.41-10.25-10-13.79ZM464.21,997.66c-1.01,6.74-3.18,11.67-6.49,14.79-6.52,5.59-16.34,4.84-21.94-1.68-.49-.57-.93-1.17-1.33-1.8-2.31-3.97-2.95-9.31-1.91-16.04,1.04-6.73,3.21-11.66,6.52-14.79,6.53-5.59,16.36-4.83,21.95,1.7.48.56.92,1.15,1.31,1.78,2.27,3.96,2.9,9.31,1.89,16.04h0Z"/>
  <polygon class="st0" points="521.78 1016.35 521.22 1016.37 504.99 965.69 486.2 965.95 510.58 1035.09 532.93 1034.79 555.43 965.02 536.63 965.27 521.78 1016.35"/>
  <path class="st0" d="M572.41,1017.56c-3.78-3.01-9.28-2.42-12.33,1.33-1.51,1.77-2.19,4.11-1.88,6.41.19,2.34,1.35,4.5,3.21,5.94,3.75,3.04,9.25,2.46,12.29-1.3.01-.02.02-.03.04-.05,1.54-1.79,2.26-4.15,1.99-6.49-.24-2.33-1.44-4.45-3.32-5.85Z"/>
  <path class="st0" d="M629.62,962.3c-2.76-3.09-6.35-5.32-10.34-6.44-4.52-1.2-9.27-1.25-13.82-.16l-28.07,5.97,14.47,67.93,16.42-3.47-4.49-21.1,11.16-2.31c4.68-.88,9.08-2.87,12.84-5.79,3.24-2.59,5.65-6.07,6.94-10.01,1.32-4.19,1.48-8.66.47-12.94-.8-4.32-2.73-8.35-5.59-11.68ZM616.96,985.74c-1.54,2.31-4.15,3.86-7.82,4.63l-8.1,1.72-4.4-20.67,8.1-1.72c3.7-.79,6.7-.46,9.03.98,2.41,1.57,4.04,4.1,4.48,6.94.71,2.77.25,5.7-1.28,8.11Z"/>
  <polygon class="st0" points="675.75 933.93 685.52 960.04 659.87 969.64 650.11 943.51 634.38 949.39 658.71 1014.47 674.44 1008.59 664.66 982.44 690.3 972.84 700.08 998.99 715.77 993.12 691.44 928.06 675.75 933.93"/>
  <path class="st0" d="M155.56,415.83c7.22-.73,14.85-1.64,23.07-2.79,3.74-.52,7.67-1.1,11.83-1.74l-118.65-102.72,1,44.09,82.76,63.16Z"/>
  <path class="st0" d="M235.18,403.96c6.35-1.06,12.73-2.15,19.06-3.15,5.91-.95,11.57-1.78,16.89-2.55L114.76,217.64l-44.99-1,1.01,44.99,164.41,142.33Z"/>
  <path class="st0" d="M767.58,689.65c1.69,2.89,3.29,5.85,4.88,8.79l199.86,26.84,31.88-30.48-244.35-17.59c2.63,4.09,5.24,8.18,7.73,12.44Z"/>
  <path class="st0" d="M315.06,393.65c7.71-.49,15.31-.74,22.54-.74h.45l-132.25-173.24-44.09-.97,151.63,175.09,1.72-.14Z"/>
  <path class="st0" d="M1038.13,600.11l-281.62,20.27c-.41-11.61-1.57-23.18-3.47-34.64l251.17-18.09-31.88-30.49-223.16,29.98c-6.62-27.47-17.5-53.74-32.26-77.84l178.99-136.58.98-44.09-190.39,164.76c-6.76-9.45-14.1-18.46-21.99-26.98l213.44-184.78,1-44.99-44.99,1-184.78,213.44c-8.53-7.89-17.55-15.24-27-21.99l164.83-190.38-44.09.97-136.58,178.99c-24.12-14.76-50.4-25.65-77.89-32.28l29.98-223.14-30.49-31.86-18.11,251.17c-11.45-1.92-23.02-3.11-34.62-3.55l20.27-281.55-31.12-32.54-31.15,32.54,20.27,281.6c-11.61.45-23.18,1.63-34.64,3.55l-18.03-251.22-30.48,31.86,29.96,223.14c-24,5.8-47.1,14.85-68.65,26.91h2.15c74.89,4.53,159.61,50.35,168.99,140.33l.21,2.03-.15,2.03c-.49,6.71-.6,11.22-.57,14.25h2.71c2.73,0,5.79-.06,9.02-.12,2.66,0,5.5-.1,8.53-.14,84.83.78,160.56,43.09,211.57,116.9,1.16-8.74,2.11-17.56,2.44-26.54l281.62,20.27,32.51-31.12-32.52-31.07Z"/>
  <path class="st0" d="M523.64,611.82c-29.69,3.87-57.6,6.94-85.1-7.67-11.01-5.79-19.2-16.89-29.01-24.9-11.1-9.01-23.05-16.91-35.68-23.59-22.49-11.82-46.94-16.42-71.21-23.06,46.88-1.45,90.53,5.88,130.08,32.8,3.87,2.65,8.59,5.53,12.86,3.63,1.47-.71,2.74-1.78,3.68-3.11,12-15.74-.68-47.28-8.47-62.5-9.4-18.16-26-39.09-45.66-46.82-35-13.77-72.92-13.54-111.51-8.82-14.18,1.74-28.49,4.1-42.83,6.63-44.81,7.95-90.66,18.44-136.4,12.42-18.83-2.48-38.12-6.42-55.01-15.38-8.33-4.41-16.08-9.83-23.08-16.14-4.53-4.07-15.86-13.07-16.98-19.31,4.04,23.41,12.14,45.93,23.94,66.55,21,37.04,70.05,100.26,120.18,86.34,15.56-4.32,26.95-16.15,39.91-24.99,16.2-11,30.5-12.63,49.77-10.73,77.67,5.71,225.96,52.18,199.95,153.71-6.42,24.41-73.02,121.64-20.5,128.05,24.04.52,57.03-14.53,64.52-38.62,1.22,58.87-68.73,98.48-118.54,67.13-3.81,15.51,7.95,27.91,20.46,35.29,58.41,34.47,128.05,13.77,190.44,5.79,32.99-4.21,66.31-7.91,99.54-6.11,16.66.77,33.2,3.26,49.35,7.43,5.88,1.56,42.66,11.19,43.3,17.82-14.04-145.63-69.84-310.36-248.01-291.85Z"/>
  <path class="st0" d="M325.5,588.53c-19.61-7.45-104.08-17.36-59.41,27.27,9.86,9.86,18.33,25.53,30.44,32.17,21.22,8.02,62.16,16.03,77.32-4.84-1.83,2.52.2,15.49-1.16,19.77-2.28,6.77-6.3,12.82-11.64,17.55-12.59,11.57-30.9,16.41-47.32,19.27-4.63.77-9.24,1.46-13.83,2.07-32.2,4.06-66.98,5.12-98.62-1.84-17.88-3.95-34.1-6.56-75.87-29.55,24.31,34.26,60.69,49.08,68.54,51.26,17.63,4.97,35.73,8.12,54.01,9.4,6.17.42,12.35.69,18.52.81,17.69.36,36.05-2.18,53.57-4.77,17.29-2.57,35.05-6.81,49.28-17.48,73.24-46.34,7.47-101.59-43.83-121.09Z"/>
</svg>